<mxfile host="Electron" modified="2024-06-02T22:01:00.813Z" agent="Mozilla/5.0 (Windows NT 10.0; Win64; x64) AppleWebKit/537.36 (KHTML, like Gecko) draw.io/24.4.8 Chrome/124.0.6367.207 Electron/30.0.6 Safari/537.36" etag="N3QdLsQOyTQX2_zgDqvu" version="24.4.8" type="device">
  <diagram name="PÃ¡gina-1" id="HaVfLr6QvtHRGKdOhgUy">
    <mxGraphModel dx="2607" dy="1520" grid="1" gridSize="10" guides="1" tooltips="1" connect="1" arrows="1" fold="1" page="1" pageScale="1" pageWidth="1600" pageHeight="900" math="0" shadow="0">
      <root>
        <mxCell id="0" />
        <mxCell id="1" parent="0" />
        <mxCell id="lMLzL-RNAjcUyK2tRI6p-1" value="" style="rounded=1;whiteSpace=wrap;html=1;fillColor=#f0a30a;fontColor=#000000;strokeColor=#BD7000;strokeWidth=4;" vertex="1" parent="1">
          <mxGeometry x="440" y="530" width="595" height="80" as="geometry" />
        </mxCell>
        <mxCell id="lMLzL-RNAjcUyK2tRI6p-3" value="" style="shape=hexagon;perimeter=hexagonPerimeter2;whiteSpace=wrap;html=1;fixedSize=1;fillColor=#6a00ff;fontColor=#ffffff;strokeColor=#3700CC;strokeWidth=4;" vertex="1" parent="1">
          <mxGeometry x="430" y="710" width="150" height="80" as="geometry" />
        </mxCell>
        <mxCell id="lMLzL-RNAjcUyK2tRI6p-4" value="" style="shape=hexagon;perimeter=hexagonPerimeter2;whiteSpace=wrap;html=1;fixedSize=1;fillColor=#6a00ff;fontColor=#ffffff;strokeColor=#3700CC;strokeWidth=4;" vertex="1" parent="1">
          <mxGeometry x="620" y="710" width="150" height="80" as="geometry" />
        </mxCell>
        <mxCell id="lMLzL-RNAjcUyK2tRI6p-5" value="" style="shape=hexagon;perimeter=hexagonPerimeter2;whiteSpace=wrap;html=1;fixedSize=1;fillColor=#6a00ff;fontColor=#ffffff;strokeColor=#3700CC;strokeWidth=4;" vertex="1" parent="1">
          <mxGeometry x="820" y="710" width="210" height="80" as="geometry" />
        </mxCell>
        <mxCell id="lMLzL-RNAjcUyK2tRI6p-7" value="" style="endArrow=classic;html=1;rounded=0;exitX=0.112;exitY=1.038;exitDx=0;exitDy=0;entryX=0.5;entryY=0;entryDx=0;entryDy=0;strokeWidth=4;exitPerimeter=0;" edge="1" parent="1" source="lMLzL-RNAjcUyK2tRI6p-1" target="lMLzL-RNAjcUyK2tRI6p-3">
          <mxGeometry width="50" height="50" relative="1" as="geometry">
            <mxPoint x="710" y="700" as="sourcePoint" />
            <mxPoint x="760" y="650" as="targetPoint" />
          </mxGeometry>
        </mxCell>
        <mxCell id="lMLzL-RNAjcUyK2tRI6p-8" value="" style="endArrow=classic;html=1;rounded=0;exitX=0.428;exitY=0.993;exitDx=0;exitDy=0;entryX=0.5;entryY=0;entryDx=0;entryDy=0;strokeWidth=4;exitPerimeter=0;" edge="1" parent="1" source="lMLzL-RNAjcUyK2tRI6p-1" target="lMLzL-RNAjcUyK2tRI6p-4">
          <mxGeometry width="50" height="50" relative="1" as="geometry">
            <mxPoint x="748" y="620" as="sourcePoint" />
            <mxPoint x="515" y="720" as="targetPoint" />
          </mxGeometry>
        </mxCell>
        <mxCell id="lMLzL-RNAjcUyK2tRI6p-9" value="" style="endArrow=classic;html=1;rounded=0;exitX=0.817;exitY=1.038;exitDx=0;exitDy=0;entryX=0.5;entryY=0;entryDx=0;entryDy=0;strokeWidth=4;exitPerimeter=0;" edge="1" parent="1" source="lMLzL-RNAjcUyK2tRI6p-1" target="lMLzL-RNAjcUyK2tRI6p-5">
          <mxGeometry width="50" height="50" relative="1" as="geometry">
            <mxPoint x="748" y="620" as="sourcePoint" />
            <mxPoint x="705" y="720" as="targetPoint" />
          </mxGeometry>
        </mxCell>
        <mxCell id="lMLzL-RNAjcUyK2tRI6p-11" value="" style="rounded=1;whiteSpace=wrap;html=1;fillColor=#d80073;strokeColor=#A50040;strokeWidth=4;fontColor=#ffffff;" vertex="1" parent="1">
          <mxGeometry x="440" y="400" width="595" height="80" as="geometry" />
        </mxCell>
        <mxCell id="lMLzL-RNAjcUyK2tRI6p-12" value="" style="endArrow=none;dashed=1;html=1;dashPattern=1 3;strokeWidth=4;rounded=0;entryX=0.5;entryY=1;entryDx=0;entryDy=0;exitX=0.5;exitY=0;exitDx=0;exitDy=0;" edge="1" parent="1" source="lMLzL-RNAjcUyK2tRI6p-1" target="lMLzL-RNAjcUyK2tRI6p-11">
          <mxGeometry width="50" height="50" relative="1" as="geometry">
            <mxPoint x="700" y="550" as="sourcePoint" />
            <mxPoint x="750" y="500" as="targetPoint" />
          </mxGeometry>
        </mxCell>
        <mxCell id="lMLzL-RNAjcUyK2tRI6p-13" value="" style="ellipse;whiteSpace=wrap;html=1;aspect=fixed;fillColor=#60a917;fontColor=#ffffff;strokeColor=#2D7600;strokeWidth=4;" vertex="1" parent="1">
          <mxGeometry x="440" y="200" width="100" height="100" as="geometry" />
        </mxCell>
        <mxCell id="lMLzL-RNAjcUyK2tRI6p-14" value="" style="ellipse;whiteSpace=wrap;html=1;aspect=fixed;fillColor=#60a917;fontColor=#ffffff;strokeColor=#2D7600;strokeWidth=4;" vertex="1" parent="1">
          <mxGeometry x="550" y="110" width="80" height="80" as="geometry" />
        </mxCell>
        <mxCell id="lMLzL-RNAjcUyK2tRI6p-15" value="" style="ellipse;whiteSpace=wrap;html=1;aspect=fixed;fillColor=#60a917;fontColor=#ffffff;strokeColor=#2D7600;strokeWidth=4;" vertex="1" parent="1">
          <mxGeometry x="670" y="170" width="100" height="100" as="geometry" />
        </mxCell>
        <mxCell id="lMLzL-RNAjcUyK2tRI6p-16" value="" style="ellipse;whiteSpace=wrap;html=1;aspect=fixed;fillColor=#60a917;fontColor=#ffffff;strokeColor=#2D7600;strokeWidth=4;" vertex="1" parent="1">
          <mxGeometry x="810" y="90" width="80" height="80" as="geometry" />
        </mxCell>
        <mxCell id="lMLzL-RNAjcUyK2tRI6p-17" value="" style="ellipse;whiteSpace=wrap;html=1;aspect=fixed;fillColor=#60a917;fontColor=#ffffff;strokeColor=#2D7600;strokeWidth=4;" vertex="1" parent="1">
          <mxGeometry x="930" y="220" width="90" height="90" as="geometry" />
        </mxCell>
        <mxCell id="lMLzL-RNAjcUyK2tRI6p-20" value="" style="endArrow=none;dashed=1;html=1;rounded=0;exitX=0.5;exitY=0;exitDx=0;exitDy=0;entryX=0.5;entryY=1;entryDx=0;entryDy=0;strokeWidth=4;" edge="1" parent="1" source="lMLzL-RNAjcUyK2tRI6p-11" target="lMLzL-RNAjcUyK2tRI6p-13">
          <mxGeometry width="50" height="50" relative="1" as="geometry">
            <mxPoint x="720" y="390" as="sourcePoint" />
            <mxPoint x="770" y="340" as="targetPoint" />
          </mxGeometry>
        </mxCell>
        <mxCell id="lMLzL-RNAjcUyK2tRI6p-21" value="" style="endArrow=none;dashed=1;html=1;rounded=0;entryX=0.5;entryY=1;entryDx=0;entryDy=0;strokeWidth=4;" edge="1" parent="1" target="lMLzL-RNAjcUyK2tRI6p-14">
          <mxGeometry width="50" height="50" relative="1" as="geometry">
            <mxPoint x="740" y="400" as="sourcePoint" />
            <mxPoint x="510" y="310" as="targetPoint" />
          </mxGeometry>
        </mxCell>
        <mxCell id="lMLzL-RNAjcUyK2tRI6p-22" value="" style="endArrow=none;dashed=1;html=1;rounded=0;entryX=0.5;entryY=1;entryDx=0;entryDy=0;strokeWidth=4;" edge="1" parent="1" source="lMLzL-RNAjcUyK2tRI6p-11" target="lMLzL-RNAjcUyK2tRI6p-15">
          <mxGeometry width="50" height="50" relative="1" as="geometry">
            <mxPoint x="758" y="420" as="sourcePoint" />
            <mxPoint x="520" y="320" as="targetPoint" />
          </mxGeometry>
        </mxCell>
        <mxCell id="lMLzL-RNAjcUyK2tRI6p-23" value="" style="endArrow=none;dashed=1;html=1;rounded=0;exitX=0.5;exitY=0;exitDx=0;exitDy=0;entryX=0.423;entryY=1.029;entryDx=0;entryDy=0;strokeWidth=4;entryPerimeter=0;" edge="1" parent="1" source="lMLzL-RNAjcUyK2tRI6p-11" target="lMLzL-RNAjcUyK2tRI6p-16">
          <mxGeometry width="50" height="50" relative="1" as="geometry">
            <mxPoint x="768" y="430" as="sourcePoint" />
            <mxPoint x="530" y="330" as="targetPoint" />
          </mxGeometry>
        </mxCell>
        <mxCell id="lMLzL-RNAjcUyK2tRI6p-24" value="" style="endArrow=none;dashed=1;html=1;rounded=0;exitX=0.5;exitY=0;exitDx=0;exitDy=0;entryX=0;entryY=1;entryDx=0;entryDy=0;strokeWidth=4;" edge="1" parent="1" source="lMLzL-RNAjcUyK2tRI6p-11" target="lMLzL-RNAjcUyK2tRI6p-17">
          <mxGeometry width="50" height="50" relative="1" as="geometry">
            <mxPoint x="778" y="440" as="sourcePoint" />
            <mxPoint x="540" y="340" as="targetPoint" />
          </mxGeometry>
        </mxCell>
        <mxCell id="lMLzL-RNAjcUyK2tRI6p-25" value="Display" style="text;html=1;align=center;verticalAlign=middle;whiteSpace=wrap;rounded=0;fontSize=14;" vertex="1" parent="1">
          <mxGeometry x="445" y="710" width="120" height="80" as="geometry" />
        </mxCell>
        <mxCell id="lMLzL-RNAjcUyK2tRI6p-26" value="Keyboard" style="text;html=1;align=center;verticalAlign=middle;whiteSpace=wrap;rounded=0;fontSize=14;" vertex="1" parent="1">
          <mxGeometry x="635" y="710" width="120" height="80" as="geometry" />
        </mxCell>
        <mxCell id="lMLzL-RNAjcUyK2tRI6p-27" value="EFI/ BIOS" style="text;html=1;align=center;verticalAlign=middle;whiteSpace=wrap;rounded=0;fontSize=14;" vertex="1" parent="1">
          <mxGeometry x="870" y="710" width="120" height="80" as="geometry" />
        </mxCell>
        <mxCell id="lMLzL-RNAjcUyK2tRI6p-28" value="Kernel" style="text;html=1;align=center;verticalAlign=middle;whiteSpace=wrap;rounded=0;fontSize=18;" vertex="1" parent="1">
          <mxGeometry x="677.5" y="530" width="120" height="80" as="geometry" />
        </mxCell>
        <mxCell id="lMLzL-RNAjcUyK2tRI6p-29" value="Shell" style="text;html=1;align=center;verticalAlign=middle;whiteSpace=wrap;rounded=0;fontSize=16;" vertex="1" parent="1">
          <mxGeometry x="677.5" y="400" width="120" height="80" as="geometry" />
        </mxCell>
        <mxCell id="lMLzL-RNAjcUyK2tRI6p-30" value="ls" style="text;html=1;align=center;verticalAlign=middle;whiteSpace=wrap;rounded=0;fontSize=16;" vertex="1" parent="1">
          <mxGeometry x="430" y="210" width="120" height="80" as="geometry" />
        </mxCell>
        <mxCell id="lMLzL-RNAjcUyK2tRI6p-31" value="exec" style="text;html=1;align=center;verticalAlign=middle;whiteSpace=wrap;rounded=0;fontSize=16;" vertex="1" parent="1">
          <mxGeometry x="530" y="110" width="120" height="80" as="geometry" />
        </mxCell>
        <mxCell id="lMLzL-RNAjcUyK2tRI6p-32" value="mkdir" style="text;html=1;align=center;verticalAlign=middle;whiteSpace=wrap;rounded=0;fontSize=16;" vertex="1" parent="1">
          <mxGeometry x="660" y="180" width="120" height="80" as="geometry" />
        </mxCell>
        <mxCell id="lMLzL-RNAjcUyK2tRI6p-33" value="rename" style="text;html=1;align=center;verticalAlign=middle;whiteSpace=wrap;rounded=0;fontSize=16;" vertex="1" parent="1">
          <mxGeometry x="790" y="90" width="120" height="80" as="geometry" />
        </mxCell>
        <mxCell id="lMLzL-RNAjcUyK2tRI6p-34" value="rand" style="text;html=1;align=center;verticalAlign=middle;whiteSpace=wrap;rounded=0;fontSize=16;" vertex="1" parent="1">
          <mxGeometry x="915" y="225" width="120" height="80" as="geometry" />
        </mxCell>
        <mxCell id="lMLzL-RNAjcUyK2tRI6p-35" value="" style="endArrow=none;dashed=1;html=1;rounded=0;strokeWidth=9;fillColor=#008a00;strokeColor=#005700;" edge="1" parent="1">
          <mxGeometry width="50" height="50" relative="1" as="geometry">
            <mxPoint x="1160" y="780" as="sourcePoint" />
            <mxPoint x="1160" y="80" as="targetPoint" />
          </mxGeometry>
        </mxCell>
        <mxCell id="lMLzL-RNAjcUyK2tRI6p-36" value="LibrerÃ­as" style="text;html=1;align=center;verticalAlign=middle;whiteSpace=wrap;rounded=0;rotation=90;fontSize=30;" vertex="1" parent="1">
          <mxGeometry x="1090" y="410" width="200" height="90" as="geometry" />
        </mxCell>
        <mxCell id="lMLzL-RNAjcUyK2tRI6p-37" value="" style="endArrow=none;dashed=1;html=1;dashPattern=1 3;strokeWidth=5;rounded=0;fillColor=#e51400;strokeColor=#B20000;" edge="1" parent="1">
          <mxGeometry width="50" height="50" relative="1" as="geometry">
            <mxPoint x="260" y="660" as="sourcePoint" />
            <mxPoint x="1160" y="660" as="targetPoint" />
          </mxGeometry>
        </mxCell>
        <mxCell id="lMLzL-RNAjcUyK2tRI6p-38" value="" style="endArrow=none;dashed=1;html=1;dashPattern=1 3;strokeWidth=5;rounded=0;fillColor=#e51400;strokeColor=#B20000;" edge="1" parent="1">
          <mxGeometry width="50" height="50" relative="1" as="geometry">
            <mxPoint x="260" y="510" as="sourcePoint" />
            <mxPoint x="1160" y="510" as="targetPoint" />
          </mxGeometry>
        </mxCell>
        <mxCell id="lMLzL-RNAjcUyK2tRI6p-39" value="" style="endArrow=none;dashed=1;html=1;dashPattern=1 3;strokeWidth=5;rounded=0;fillColor=#e51400;strokeColor=#B20000;" edge="1" parent="1">
          <mxGeometry width="50" height="50" relative="1" as="geometry">
            <mxPoint x="260" y="340" as="sourcePoint" />
            <mxPoint x="1160" y="340" as="targetPoint" />
          </mxGeometry>
        </mxCell>
        <mxCell id="lMLzL-RNAjcUyK2tRI6p-40" value="Boot" style="text;html=1;align=center;verticalAlign=middle;whiteSpace=wrap;rounded=0;fontSize=18;" vertex="1" parent="1">
          <mxGeometry x="250" y="620" width="60" height="30" as="geometry" />
        </mxCell>
        <mxCell id="lMLzL-RNAjcUyK2tRI6p-41" value="Kernel" style="text;html=1;align=center;verticalAlign=middle;whiteSpace=wrap;rounded=0;fontSize=18;" vertex="1" parent="1">
          <mxGeometry x="250" y="470" width="60" height="30" as="geometry" />
        </mxCell>
        <mxCell id="lMLzL-RNAjcUyK2tRI6p-42" value="Apps" style="text;html=1;align=center;verticalAlign=middle;whiteSpace=wrap;rounded=0;fontSize=18;" vertex="1" parent="1">
          <mxGeometry x="250" y="306" width="60" height="30" as="geometry" />
        </mxCell>
      </root>
    </mxGraphModel>
  </diagram>
</mxfile>
